<svg xmlns="http://www.w3.org/2000/svg" viewBox="0 0 24 20" shape-rendering="crispEdges" role="img" aria-labelledby="title">
  <title id="title">Tortuga pixel art con caparazón de ondas Wi-Fi de wifituga</title>
  <path fill="#050505" d="M8 3h6v1h2v2h1v8h-1v2h-2v1H8v-1H6v-2H5V6h1V4h2zM3 4h3v3H5V6H3zM16 4h3V3h1v4h-3V6h-1zM3 14h3v3H5v1H3zM16 14h3v4h-2v-1h-1zM2 9h3v4H3v-1H2zM17 8h4v1h1v4h-1v1h-4z"/>
  <path fill="#f7f7f4" d="M8 5h6v1h1v2h1v4h-1v2h-1v1H8v-1H7v-2H6V8h1V6h1zM19 10h1v1h-1z"/>
  <path fill="#050505" d="M8 9V7h2V6h4v1h2v2h-2V8h-4v1H8zM10 12v-2h1V9h2v1h1v2h-2v-1h-1v1h-1zM11 13h2v2h-2z"/>
</svg>
