<svg xmlns="http://www.w3.org/2000/svg" viewBox="0 0 30 24" shape-rendering="crispEdges" role="img" aria-labelledby="title">
  <title id="title">Tortuga wifituga con un caparazón formado por ondas Wi-Fi</title>
  <path fill="#050505" d="M11 3h8v2h-8zM8 5h4v2H8zM18 5h4v2h-4zM6 7h3v2H6zM21 7h3v2h-3zM4 9h3v4H4zM23 9h3v4h-3zM12 7h6v2h-6zM10 9h3v2h-3zM17 9h3v2h-3zM8 11h3v4H8zM19 11h3v4h-3zM13 11h4v2h-4zM11 13h3v3h-3zM16 13h3v3h-3zM4 16h23v2H4zM4 14H2v-1H1v3h1v1h3zM25 13h3v1h1v3h-1v1h-4v-4h1zM7 18h5v2h-1v2H8v-2H6v-1h1zM19 18h5v4h-3v-2h-2z"/>
  <path fill="#f4f4ef" d="M27 14h1v1h-1z"/>
</svg>
